<svg width="100" height="100" viewBox="0 0 100 100" fill="none" xmlns="http://www.w3.org/2000/svg">
<circle cx="50" cy="50" r="50" fill="#0D0D0F"/>
<g clip-path="url(#clip0_2104_6)">
<path d="M31.6667 83V75.6667H46.3333V64.3C43.3389 63.6278 40.6659 62.3603 38.3143 60.4977C35.9628 58.635 34.2358 56.2969 33.1333 53.4833C28.55 52.9333 24.7159 50.9326 21.631 47.481C18.5461 44.0294 17.0024 39.9802 17 35.3333V31.6667C17 29.65 17.7187 27.9242 19.156 26.4893C20.5933 25.0544 22.3191 24.3358 24.3333 24.3333H31.6667V17H68.3333V24.3333H75.6667C77.6833 24.3333 79.4103 25.052 80.8477 26.4893C82.285 27.9267 83.0024 29.6524 83 31.6667V35.3333C83 39.9778 81.4563 44.027 78.369 47.481C75.2817 50.935 71.4476 52.9358 66.8667 53.4833C65.7667 56.2944 64.0409 58.6326 61.6893 60.4977C59.3378 62.3628 56.6636 63.6302 53.6667 64.3V75.6667H68.3333V83H31.6667ZM31.6667 45.6V31.6667H24.3333V35.3333C24.3333 37.6556 25.0056 39.7492 26.35 41.6143C27.6944 43.4794 29.4667 44.808 31.6667 45.6ZM68.3333 45.6C70.5333 44.8056 72.3056 43.4758 73.65 41.6107C74.9944 39.7456 75.6667 37.6531 75.6667 35.3333V31.6667H68.3333V45.6Z" fill="#FFC700"/>
<path d="M30 84V75H70V84H30Z" fill="#A44D0F"/>
</g>
<defs>
<clipPath id="clip0_2104_6">
<rect width="66" height="66" fill="white" transform="translate(17 17)"/>
</clipPath>
</defs>
</svg>
